<?xml version="1.0" standalone="no"?>
<svg xmlns:xlink="http://www.w3.org/1999/xlink" id="wave" style="transform:rotate(0deg); transition: 0.3s" viewBox="0 0 1440 340" version="1.1" xmlns="http://www.w3.org/2000/svg"><defs><linearGradient id="sw-gradient-0" x1="0" x2="0" y1="1" y2="0"><stop stop-color="rgba(31, 40, 51, 1)" offset="0%"/><stop stop-color="rgba(102, 252, 241, 1)" offset="100%"/></linearGradient></defs><path style="transform:translate(0, 0px); opacity:1" fill="url(#sw-gradient-0)" d="M0,306L80,255C160,204,320,102,480,79.3C640,57,800,113,960,158.7C1120,204,1280,238,1440,255C1600,272,1760,272,1920,243.7C2080,215,2240,159,2400,153C2560,147,2720,193,2880,192.7C3040,193,3200,147,3360,158.7C3520,170,3680,238,3840,266.3C4000,295,4160,283,4320,232.3C4480,181,4640,91,4800,62.3C4960,34,5120,68,5280,79.3C5440,91,5600,79,5760,85C5920,91,6080,113,6240,107.7C6400,102,6560,68,6720,96.3C6880,125,7040,215,7200,260.7C7360,306,7520,306,7680,289C7840,272,8000,238,8160,204C8320,170,8480,136,8640,124.7C8800,113,8960,125,9120,141.7C9280,159,9440,181,9600,181.3C9760,181,9920,159,10080,141.7C10240,125,10400,113,10560,90.7C10720,68,10880,34,11040,28.3C11200,23,11360,45,11440,56.7L11520,68L11520,340L11440,340C11360,340,11200,340,11040,340C10880,340,10720,340,10560,340C10400,340,10240,340,10080,340C9920,340,9760,340,9600,340C9440,340,9280,340,9120,340C8960,340,8800,340,8640,340C8480,340,8320,340,8160,340C8000,340,7840,340,7680,340C7520,340,7360,340,7200,340C7040,340,6880,340,6720,340C6560,340,6400,340,6240,340C6080,340,5920,340,5760,340C5600,340,5440,340,5280,340C5120,340,4960,340,4800,340C4640,340,4480,340,4320,340C4160,340,4000,340,3840,340C3680,340,3520,340,3360,340C3200,340,3040,340,2880,340C2720,340,2560,340,2400,340C2240,340,2080,340,1920,340C1760,340,1600,340,1440,340C1280,340,1120,340,960,340C800,340,640,340,480,340C320,340,160,340,80,340L0,340Z"/><defs><linearGradient id="sw-gradient-1" x1="0" x2="0" y1="1" y2="0"><stop stop-color="rgba(69, 162, 158, 1)" offset="0%"/><stop stop-color="rgba(11, 12, 16, 1)" offset="100%"/></linearGradient></defs><path style="transform:translate(0, 50px); opacity:0.9" fill="url(#sw-gradient-1)" d="M0,68L80,62.3C160,57,320,45,480,79.3C640,113,800,193,960,192.7C1120,193,1280,113,1440,102C1600,91,1760,147,1920,141.7C2080,136,2240,68,2400,56.7C2560,45,2720,91,2880,107.7C3040,125,3200,113,3360,113.3C3520,113,3680,125,3840,158.7C4000,193,4160,249,4320,260.7C4480,272,4640,238,4800,187C4960,136,5120,68,5280,85C5440,102,5600,204,5760,255C5920,306,6080,306,6240,277.7C6400,249,6560,193,6720,158.7C6880,125,7040,113,7200,141.7C7360,170,7520,238,7680,260.7C7840,283,8000,261,8160,260.7C8320,261,8480,283,8640,289C8800,295,8960,283,9120,232.3C9280,181,9440,91,9600,79.3C9760,68,9920,136,10080,164.3C10240,193,10400,181,10560,181.3C10720,181,10880,193,11040,215.3C11200,238,11360,272,11440,289L11520,306L11520,340L11440,340C11360,340,11200,340,11040,340C10880,340,10720,340,10560,340C10400,340,10240,340,10080,340C9920,340,9760,340,9600,340C9440,340,9280,340,9120,340C8960,340,8800,340,8640,340C8480,340,8320,340,8160,340C8000,340,7840,340,7680,340C7520,340,7360,340,7200,340C7040,340,6880,340,6720,340C6560,340,6400,340,6240,340C6080,340,5920,340,5760,340C5600,340,5440,340,5280,340C5120,340,4960,340,4800,340C4640,340,4480,340,4320,340C4160,340,4000,340,3840,340C3680,340,3520,340,3360,340C3200,340,3040,340,2880,340C2720,340,2560,340,2400,340C2240,340,2080,340,1920,340C1760,340,1600,340,1440,340C1280,340,1120,340,960,340C800,340,640,340,480,340C320,340,160,340,80,340L0,340Z"/></svg>