<?xml version="1.0" standalone="no"?>
<svg xmlns:xlink="http://www.w3.org/1999/xlink" id="wave" style="transform:rotate(0deg); transition: 0.3s" viewBox="0 0 1440 200" version="1.1" xmlns="http://www.w3.org/2000/svg"><defs><linearGradient id="sw-gradient-0" x1="0" x2="0" y1="1" y2="0"><stop stop-color="rgba(31, 40, 51, 1)" offset="0%"/><stop stop-color="rgba(102, 252, 241, 1)" offset="100%"/></linearGradient></defs><path style="transform:translate(0, 0px); opacity:1" fill="url(#sw-gradient-0)" d="M0,180L80,150C160,120,320,60,480,46.7C640,33,800,67,960,93.3C1120,120,1280,140,1440,150C1600,160,1760,160,1920,143.3C2080,127,2240,93,2400,90C2560,87,2720,113,2880,113.3C3040,113,3200,87,3360,93.3C3520,100,3680,140,3840,156.7C4000,173,4160,167,4320,136.7C4480,107,4640,53,4800,36.7C4960,20,5120,40,5280,46.7C5440,53,5600,47,5760,50C5920,53,6080,67,6240,63.3C6400,60,6560,40,6720,56.7C6880,73,7040,127,7200,153.3C7360,180,7520,180,7680,170C7840,160,8000,140,8160,120C8320,100,8480,80,8640,73.3C8800,67,8960,73,9120,83.3C9280,93,9440,107,9600,106.7C9760,107,9920,93,10080,83.3C10240,73,10400,67,10560,53.3C10720,40,10880,20,11040,16.7C11200,13,11360,27,11440,33.3L11520,40L11520,200L11440,200C11360,200,11200,200,11040,200C10880,200,10720,200,10560,200C10400,200,10240,200,10080,200C9920,200,9760,200,9600,200C9440,200,9280,200,9120,200C8960,200,8800,200,8640,200C8480,200,8320,200,8160,200C8000,200,7840,200,7680,200C7520,200,7360,200,7200,200C7040,200,6880,200,6720,200C6560,200,6400,200,6240,200C6080,200,5920,200,5760,200C5600,200,5440,200,5280,200C5120,200,4960,200,4800,200C4640,200,4480,200,4320,200C4160,200,4000,200,3840,200C3680,200,3520,200,3360,200C3200,200,3040,200,2880,200C2720,200,2560,200,2400,200C2240,200,2080,200,1920,200C1760,200,1600,200,1440,200C1280,200,1120,200,960,200C800,200,640,200,480,200C320,200,160,200,80,200L0,200Z"/><defs><linearGradient id="sw-gradient-1" x1="0" x2="0" y1="1" y2="0"><stop stop-color="rgba(69, 162, 158, 1)" offset="0%"/><stop stop-color="rgba(11, 12, 16, 1)" offset="100%"/></linearGradient></defs><path style="transform:translate(0, 50px); opacity:0.9" fill="url(#sw-gradient-1)" d="M0,40L80,36.7C160,33,320,27,480,46.7C640,67,800,113,960,113.3C1120,113,1280,67,1440,60C1600,53,1760,87,1920,83.3C2080,80,2240,40,2400,33.3C2560,27,2720,53,2880,63.3C3040,73,3200,67,3360,66.7C3520,67,3680,73,3840,93.3C4000,113,4160,147,4320,153.3C4480,160,4640,140,4800,110C4960,80,5120,40,5280,50C5440,60,5600,120,5760,150C5920,180,6080,180,6240,163.3C6400,147,6560,113,6720,93.3C6880,73,7040,67,7200,83.3C7360,100,7520,140,7680,153.3C7840,167,8000,153,8160,153.3C8320,153,8480,167,8640,170C8800,173,8960,167,9120,136.7C9280,107,9440,53,9600,46.7C9760,40,9920,80,10080,96.7C10240,113,10400,107,10560,106.7C10720,107,10880,113,11040,126.7C11200,140,11360,160,11440,170L11520,180L11520,200L11440,200C11360,200,11200,200,11040,200C10880,200,10720,200,10560,200C10400,200,10240,200,10080,200C9920,200,9760,200,9600,200C9440,200,9280,200,9120,200C8960,200,8800,200,8640,200C8480,200,8320,200,8160,200C8000,200,7840,200,7680,200C7520,200,7360,200,7200,200C7040,200,6880,200,6720,200C6560,200,6400,200,6240,200C6080,200,5920,200,5760,200C5600,200,5440,200,5280,200C5120,200,4960,200,4800,200C4640,200,4480,200,4320,200C4160,200,4000,200,3840,200C3680,200,3520,200,3360,200C3200,200,3040,200,2880,200C2720,200,2560,200,2400,200C2240,200,2080,200,1920,200C1760,200,1600,200,1440,200C1280,200,1120,200,960,200C800,200,640,200,480,200C320,200,160,200,80,200L0,200Z"/></svg>