<?xml version="1.0" standalone="no"?>
<svg xmlns:xlink="http://www.w3.org/1999/xlink" id="wave" style="transform:rotate(0deg); transition: 0.3s" viewBox="0 0 1440 220" version="1.1" xmlns="http://www.w3.org/2000/svg"><defs><linearGradient id="sw-gradient-0" x1="0" x2="0" y1="1" y2="0"><stop stop-color="rgba(44, 62, 80, 1)" offset="0%"/><stop stop-color="rgba(26, 188, 156, 1)" offset="100%"/></linearGradient></defs><path style="transform:translate(0, 0px); opacity:1" fill="url(#sw-gradient-0)" d="M0,22L720,154L1440,22L2160,0L2880,132L3600,154L4320,132L5040,132L5760,176L6480,0L7200,132L7920,66L8640,154L9360,198L10080,132L10800,132L11520,88L12240,176L12960,22L13680,110L14400,110L15120,22L15840,198L16560,132L17280,0L17280,220L16560,220L15840,220L15120,220L14400,220L13680,220L12960,220L12240,220L11520,220L10800,220L10080,220L9360,220L8640,220L7920,220L7200,220L6480,220L5760,220L5040,220L4320,220L3600,220L2880,220L2160,220L1440,220L720,220L0,220Z"/></svg>